HIERARCHY
ROOT Hips
{
	OFFSET -32.860001 56.121803 44.745396
	CHANNELS 6 Xposition Yposition Zposition Zrotation Xrotation Yrotation
	JOINT Chest
	{
		OFFSET -0.637402 0.831600 5.390099
		CHANNELS 6 Xposition Yposition Zposition Zrotation Xrotation Yrotation
		JOINT Chest2
		{
			OFFSET 0.000000 0.000000 4.429901
			CHANNELS 6 Xposition Yposition Zposition Zrotation Xrotation Yrotation
			JOINT Neck
			{
				OFFSET 0.000000 0.000000 10.301395
				CHANNELS 6 Xposition Yposition Zposition Zrotation Xrotation Yrotation
				JOINT Head
				{
					OFFSET 0.000000 0.000000 2.173897
					CHANNELS 6 Xposition Yposition Zposition Zrotation Xrotation Yrotation
					End Site
					{
						OFFSET 0.000000 0.000000 8.298004
					}
				}
			}
			JOINT LeftCollar
			{
				OFFSET 2.142401 -0.572701 5.717800
				CHANNELS 6 Xposition Yposition Zposition Zrotation Xrotation Yrotation
				JOINT LeftShoulder
				{
					OFFSET 5.674000 0.000000 0.000000
					CHANNELS 6 Xposition Yposition Zposition Zrotation Xrotation Yrotation
					JOINT LeftElbow
					{
						OFFSET 0.000000 0.000000 -12.238701
						CHANNELS 6 Xposition Yposition Zposition Zrotation Xrotation Yrotation
						JOINT LeftWrist
						{
							OFFSET 0.000000 0.000000 -10.253700
							CHANNELS 6 Xposition Yposition Zposition Zrotation Xrotation Yrotation
							End Site
							{
								OFFSET 0.000000 0.000000 -2.173901
							}
						}
					}
				}
			}
			JOINT RightCollar
			{
				OFFSET -2.882599 -1.580101 6.695801
				CHANNELS 6 Xposition Yposition Zposition Zrotation Xrotation Yrotation
				JOINT RightShoulder
				{
					OFFSET -4.235600 0.000000 0.000000
					CHANNELS 6 Xposition Yposition Zposition Zrotation Xrotation Yrotation
					JOINT RightElbow
					{
						OFFSET 0.000000 0.000000 -10.709900
						CHANNELS 6 Xposition Yposition Zposition Zrotation Xrotation Yrotation
						JOINT RightWrist
						{
							OFFSET 0.000000 0.000000 -11.716801
							CHANNELS 6 Xposition Yposition Zposition Zrotation Xrotation Yrotation
							End Site
							{
								OFFSET 0.000000 0.000000 -2.173901
							}
						}
					}
				}
			}
		}
	}
	JOINT LeftHip
	{
		OFFSET 2.279499 0.210400 -2.475502
		CHANNELS 6 Xposition Yposition Zposition Zrotation Xrotation Yrotation
		JOINT LeftKnee
		{
			OFFSET 0.000000 -0.000004 -20.742800
			CHANNELS 6 Xposition Yposition Zposition Zrotation Xrotation Yrotation
			JOINT LeftAnkle
			{
				OFFSET 0.000000 0.000000 -16.666000
				CHANNELS 6 Xposition Yposition Zposition Zrotation Xrotation Yrotation
				End Site
				{
					OFFSET 0.000000 -8.310898 0.000000
				}
			}
		}
	}
	JOINT RightHip
	{
		OFFSET -1.961899 0.232300 -2.727402
		CHANNELS 6 Xposition Yposition Zposition Zrotation Xrotation Yrotation
		JOINT RightKnee
		{
			OFFSET 0.000000 -0.000004 -20.526800
			CHANNELS 6 Xposition Yposition Zposition Zrotation Xrotation Yrotation
			JOINT RightAnkle
			{
				OFFSET 0.000000 0.000000 -16.867300
				CHANNELS 6 Xposition Yposition Zposition Zrotation Xrotation Yrotation
				End Site
				{
					OFFSET 0.000000 -7.186401 0.000000
				}
			}
		}
	}
}
MOTION
Frames: 8
Frame Time: 0.041667
55.655006 85.800407 45.316387 1606.571961 15.141375 4.182552 -0.637408 0.831595 5.390093 13.116752 14.210423 -0.778078 0.000003 0.000000 4.429906 -5.914411 -2.695578 -0.305550 0.000009 0.000015 10.301394 370.939815 31.485434 -1.286932 0.000000 0.000008 2.173897 -356.350312 6.063913 1.481866 2.142402 -0.572683 5.717803 5.839392 -2.930561 -13.769691 5.674001 0.000007 0.000001 355.210490 -710.403331 -71.330302 0.000005 0.000001 -12.238696 -862.490552 192.756490 -167.467496 -0.000008 -0.000001 -10.253699 -289.918690 11.784675 5.625429 -2.882592 -1.580090 6.695804 -5.361589 -7.256962 8.361940 -4.235616 0.000016 0.000007 -1073.183693 3.091463 -642.109308 0.000002 -0.000006 -10.709900 175.921521 -164.230095 171.966528 0.000004 -0.000001 -11.716808 -1007.489731 9.214422 24.078930 2.279493 0.210398 -2.475503 394.132733 -30.729424 12.970708 0.000004 -0.000013 -20.742800 -375.615735 28.001008 -5.429647 0.000001 0.000021 -16.665998 336.958804 28.897946 14.243808 -1.961892 0.232294 -2.727401 -1098.730349 -12.626447 14.996389 -0.000007 -0.000007 -20.526794 893.319731 152.820538 -181.093149 0.000000 -0.000011 -16.867298 41.404364 69.706875 -39.227849
55.677208 85.767403 45.308693 1606.753699 14.918153 4.256975 -0.637408 0.831608 5.390100 12.983073 13.843225 -0.792472 -0.000002 -0.000007 4.429907 -5.750049 -2.591655 -0.299430 -0.000007 0.000002 10.301394 370.363729 31.391707 -0.670252 0.000003 0.000005 2.173905 -356.110709 5.912763 1.602956 2.142394 -0.572694 5.717793 6.023834 -3.059475 -13.888875 5.673993 0.000010 0.000004 354.755463 -710.306342 -71.278140 0.000001 -0.000007 -12.238701 -862.835777 192.933651 -167.514679 0.000005 0.000001 -10.253699 -289.664607 11.645014 5.806927 -2.882603 -1.580095 6.695793 -5.437261 -7.384112 8.720563 -4.235601 0.000007 -0.000007 -1073.072552 3.001017 -642.466390 0.000006 0.000001 -10.709890 176.519641 -164.342561 171.978467 0.000003 0.000004 -11.716806 -1007.519565 9.162138 24.557032 2.279500 0.210407 -2.475500 393.596372 -30.576735 12.400733 0.000001 -0.000014 -20.742792 -375.546204 27.726612 -5.189658 -0.000001 0.000027 -16.666000 336.968530 28.920879 14.418826 -1.961892 0.232304 -2.727401 -1098.161203 -12.131704 15.052856 0.000004 -0.000002 -20.526806 892.193734 153.060550 -180.882288 0.000001 -0.000008 -16.867304 42.766919 69.983976 -39.785326
55.697899 85.727211 45.299286 1607.148867 14.496525 4.186318 -0.637403 0.831614 5.390102 12.657961 13.844913 -0.923175 0.000002 0.000000 4.429898 -5.929517 -2.600957 -0.269741 0.000015 0.000003 10.301394 370.193084 31.214566 0.002230 -0.000003 0.000008 2.173896 -356.157947 5.585309 1.553407 2.142409 -0.572692 5.717796 6.291534 -3.868866 -14.152771 5.674000 -0.000002 -0.000004 354.725820 -710.119796 -70.956868 0.000007 -0.000007 -12.238704 -863.837520 193.254219 -167.494598 0.000004 -0.000009 -10.253700 -289.661984 11.720768 5.769597 -2.882588 -1.580087 6.695789 -5.431891 -7.185607 9.256873 -4.235600 0.000005 -0.000015 -1072.721097 2.655444 -642.935979 0.000004 0.000012 -10.709906 175.802663 -164.563696 171.696052 -0.000003 -0.000007 -11.716800 -1006.424877 9.074985 24.607027 2.279509 0.210405 -2.475501 393.045968 -30.332634 12.044994 -0.000001 -0.000010 -20.742796 -375.517052 27.806325 -5.125854 0.000001 -0.000001 -16.665998 337.026423 28.944446 14.371135 -1.961885 0.232304 -2.727397 -1097.481899 -11.382143 15.273375 -0.000000 -0.000020 -20.526798 892.083576 153.136461 -181.079995 -0.000007 -0.000005 -16.867306 42.291210 70.027758 -39.465369
55.710808 85.677200 45.292393 1607.185149 14.246181 4.138750 -0.637406 0.831594 5.390094 12.630660 13.643425 -0.833852 0.000003 0.000012 4.429902 -6.011875 -2.579173 -0.359319 -0.000004 -0.000004 10.301398 371.079779 31.030987 0.055300 -0.000006 -0.000006 2.173908 -356.384818 5.367064 2.024820 2.142390 -0.572704 5.717806 6.655643 -4.515424 -14.121490 5.673999 -0.000002 -0.000007 354.128943 -709.540705 -70.893074 -0.000009 0.000006 -12.238690 -865.002095 193.350197 -167.829154 0.000006 -0.000010 -10.253701 -288.783567 11.863929 6.223468 -2.882609 -1.580095 6.695798 -5.383880 -6.781381 9.442835 -4.235614 -0.000004 -0.000014 -1072.570068 2.427600 -643.012914 -0.000000 0.000012 -10.709902 174.858334 -164.482498 171.450685 -0.000013 -0.000005 -11.716789 -1005.951135 9.093155 24.088303 2.279507 0.210395 -2.475508 393.265599 -30.328325 12.252927 0.000005 -0.000006 -20.742800 -375.615270 28.299811 -5.412043 0.000005 -0.000010 -16.666000 337.038280 28.721601 14.379131 -1.961890 0.232288 -2.727412 -1096.067340 -10.679423 15.549151 0.000002 -0.000014 -20.526800 891.719172 153.400940 -181.360606 0.000008 -0.000002 -16.867308 42.177053 70.233210 -39.749970
55.721603 85.627907 45.294193 1607.100345 14.125374 4.184825 -0.637397 0.831596 5.390089 12.721039 13.299318 -0.816835 -0.000003 -0.000003 4.429888 -5.957904 -2.544947 -0.371168 0.000011 -0.000002 10.301401 370.648248 31.103554 0.393445 0.000001 0.000005 2.173908 -356.356104 5.221818 1.984237 2.142405 -0.572703 5.717794 6.663664 -4.638383 -13.830067 5.673997 0.000002 -0.000005 354.051708 -709.079586 -71.196444 -0.000010 0.000003 -12.238696 -865.020673 193.695627 -167.614372 -0.000004 -0.000002 -10.253698 -288.751028 11.858678 6.090530 -2.882597 -1.580092 6.695794 -5.378917 -6.274243 9.342810 -4.235607 0.000009 -0.000007 -1072.345273 2.080224 -642.893687 0.000007 -0.000006 -10.709897 172.082081 -164.965611 170.827976 -0.000009 -0.000003 -11.716797 -1003.679688 9.093545 23.803657 2.279507 0.210410 -2.475512 393.657024 -30.457504 12.482003 0.000001 -0.000005 -20.742796 -375.769305 28.793359 -5.618543 -0.000002 0.000008 -16.666000 337.083769 28.507616 14.290520 -1.961886 0.232302 -2.727412 -1094.492899 -10.068632 15.697890 0.000000 0.000006 -20.526802 891.463067 153.614492 -181.634756 0.000001 -0.000012 -16.867294 41.985668 70.288254 -40.207531
55.731499 85.593201 45.293793 1607.160123 13.685104 4.170791 -0.637400 0.831591 5.390099 12.703456 13.308054 -0.810631 -0.000001 -0.000005 4.429897 -5.244938 -2.296113 -0.221055 0.000003 -0.000013 10.301394 369.670547 31.036765 0.272357 -0.000009 0.000000 2.173912 -356.473474 5.200474 1.860086 2.142404 -0.572707 5.717788 6.226050 -3.375867 -14.088758 5.673994 0.000001 -0.000014 353.756753 -710.202906 -71.168877 -0.000002 0.000004 -12.238704 -864.938000 193.525282 -167.738545 0.000001 -0.000013 -10.253702 -288.821325 11.955873 6.116394 -2.882598 -1.580106 6.695792 -5.162652 -8.080249 9.554775 -4.235599 -0.000007 0.000003 -1073.140307 3.083031 -643.455620 0.000010 -0.000003 -10.709909 171.029945 -165.125028 170.281165 0.000009 0.000001 -11.716802 -1002.077270 9.310442 23.608009 2.279504 0.210398 -2.475507 393.535447 -30.209244 12.303208 0.000001 -0.000001 -20.742802 -375.737203 29.004753 -5.802247 -0.000001 0.000013 -16.666002 336.998829 28.393626 14.430887 -1.961895 0.232292 -2.727409 -1094.035222 -9.568591 15.860452 -0.000000 -0.000010 -20.526793 891.694255 153.565028 -181.788135 -0.000004 -0.000009 -16.867292 42.330999 70.289818 -40.766182
55.731804 85.567398 45.300995 1607.125589 13.245188 4.134093 -0.637407 0.831599 5.390101 12.774502 13.285275 -0.897815 -0.000004 0.000003 4.429893 -5.262438 -2.254113 -0.226728 0.000004 -0.000008 10.301396 369.151343 31.327810 0.899451 -0.000006 -0.000010 2.173887 -356.210758 5.048743 1.736198 2.142403 -0.572708 5.717799 6.118936 -3.258660 -13.954724 5.673999 0.000006 -0.000002 353.912973 -710.152854 -71.291308 -0.000001 0.000006 -12.238699 -865.170117 193.675943 -167.485855 -0.000001 -0.000006 -10.253701 -289.202094 11.876946 6.139892 -2.882599 -1.580103 6.695799 -4.998909 -7.498142 9.300056 -4.235601 -0.000014 -0.000014 -1073.060858 2.945079 -643.112198 -0.000004 -0.000006 -10.709896 170.399846 -165.206020 170.248681 0.000001 0.000010 -11.716808 -1001.648116 9.312735 23.337346 2.279501 0.210414 -2.475493 392.921385 -29.864705 11.828546 -0.000006 -0.000001 -20.742800 -375.228846 28.931343 -5.896602 0.000005 -0.000004 -16.666000 337.175376 28.418471 14.101775 -1.961894 0.232314 -2.727403 -1093.876215 -9.257148 16.006482 -0.000003 0.000001 -20.526796 892.369024 153.318827 -181.950420 -0.000010 0.000002 -16.867298 41.842415 70.035086 -40.961973
55.735199 85.553406 45.311489 1606.934125 12.725952 4.174199 -0.637401 0.831617 5.390099 13.016646 13.365644 -1.027984 0.000006 -0.000000 4.429896 -5.192737 -2.137211 -0.191874 -0.000004 0.000009 10.301399 368.906768 31.573140 1.171459 -0.000002 0.000001 2.173903 -356.036642 5.185191 1.878983 2.142392 -0.572686 5.717799 6.144145 -3.118445 -13.909985 5.674004 0.000006 -0.000004 353.779975 -710.027452 -71.314497 0.000007 -0.000006 -12.238707 -865.148917 193.764393 -167.421447 0.000003 -0.000007 -10.253698 -289.266107 11.837165 6.216766 -2.882605 -1.580086 6.695792 -4.801464 -7.756133 9.451989 -4.235616 -0.000000 -0.000003 -1073.186425 3.401127 -643.407426 0.000010 0.000000 -10.709906 170.863575 -164.892446 170.370176 0.000003 0.000002 -11.716790 -1002.387416 9.671690 23.543428 2.279502 0.210412 -2.475502 392.320247 -29.459217 11.145369 0.000002 -0.000023 -20.742802 -374.681474 28.760158 -5.847885 -0.000001 -0.000001 -16.665998 337.314930 28.498797 13.856451 -1.961891 0.232318 -2.727403 -1094.090956 -9.046601 16.081723 0.000004 -0.000013 -20.526800 892.311978 153.174669 -181.707006 -0.000009 -0.000012 -16.867302 43.140366 69.986688 -42.041057
